# Blender 4.0.0
# www.blender.org
mtllib furniture_placement_marker.mtl
o Plane
v -0.487463 0.027608 0.500000
v -0.500000 0.027608 0.487463
v 0.500000 0.027608 0.487463
v 0.487463 0.027608 0.500000
v -0.500000 0.027608 -0.487463
v -0.487463 0.027608 -0.500000
v 0.487463 0.027608 -0.500000
v 0.500000 0.027608 -0.487463
v -0.449780 0.027608 0.437243
v -0.437243 0.027608 0.449780
v 0.437243 0.027608 0.449780
v 0.449780 0.027608 0.437243
v -0.437243 0.027608 -0.449780
v -0.449780 0.027608 -0.437243
v 0.449780 0.027608 -0.437243
v 0.437243 0.027608 -0.449780
v -0.500000 0.062751 -0.487463
v -0.487463 0.075288 -0.469734
v -0.469734 0.075288 -0.487463
v -0.487463 0.062751 -0.500000
v -0.500000 0.062751 0.487463
v -0.487463 0.062751 0.500000
v -0.469734 0.075288 0.487463
v -0.487463 0.075288 0.469734
v 0.487463 0.062751 0.500000
v 0.500000 0.062751 0.487463
v 0.487463 0.075288 0.469734
v 0.469734 0.075288 0.487463
v 0.500000 0.062751 -0.487463
v 0.487463 0.062751 -0.500000
v 0.469734 0.075288 -0.487463
v 0.487463 0.075288 -0.469734
v -0.437243 0.062751 -0.449780
v -0.444587 0.075288 -0.462317
v -0.462317 0.075288 -0.444587
v -0.449780 0.062751 -0.437243
v -0.437243 0.062751 0.449780
v -0.449780 0.062751 0.437243
v -0.462317 0.075288 0.444587
v -0.444587 0.075288 0.462317
v 0.449780 0.062751 0.437243
v 0.437243 0.062751 0.449780
v 0.444587 0.075288 0.462317
v 0.462317 0.075288 0.444587
v 0.437243 0.062751 -0.449780
v 0.449780 0.062751 -0.437243
v 0.462317 0.075288 -0.444587
v 0.444587 0.075288 -0.462317
vn -0.3827 -0.0000 0.9239
vn 0.3827 -0.0000 0.9239
vn 0.3681 0.4349 0.8218
vn -0.3681 0.4349 0.8218
vn 0.3827 -0.0000 -0.9239
vn -0.3827 -0.0000 -0.9239
vn -0.3681 0.4349 -0.8218
vn 0.3681 0.4349 -0.8218
vn 0.3276 0.4566 -0.8272
vn -0.3276 0.4566 -0.8272
vn -0.3276 0.4566 0.8272
vn 0.3276 0.4566 0.8272
vn 0.0892 0.9202 -0.3812
vn -0.0892 0.9202 -0.3812
vn 0.1079 0.9631 0.2465
vn -0.1079 0.9631 0.2465
vn -0.0892 0.9202 0.3812
vn 0.0892 0.9202 0.3812
vn -0.1079 0.9631 -0.2465
vn 0.1079 0.9631 -0.2465
vn 0.3812 0.9202 0.0892
vn 0.3812 0.9202 -0.0892
vn -0.2465 0.9631 0.1079
vn -0.2465 0.9631 -0.1079
vn -0.3812 0.9202 -0.0892
vn -0.3812 0.9202 0.0892
vn 0.2465 0.9631 -0.1079
vn 0.2465 0.9631 0.1079
vn -0.9239 -0.0000 0.3827
vn -0.9239 -0.0000 -0.3827
vn -0.8272 0.4566 -0.3276
vn -0.8272 0.4566 0.3276
vn 0.9239 -0.0000 -0.3827
vn 0.9239 -0.0000 0.3827
vn 0.8272 0.4566 0.3276
vn 0.8272 0.4566 -0.3276
vn 0.8218 0.4349 -0.3681
vn 0.8218 0.4349 0.3681
vn -0.8218 0.4349 -0.3681
vn -0.8218 0.4349 0.3681
vt 0.012537 0.000000
vt 0.987463 0.000000
vt 0.012537 0.000000
vt 0.987463 1.000000
vt 0.012537 1.000000
vt 0.012537 1.000000
vt 0.987463 1.000000
vt 0.986064 0.000000
vt 0.013936 0.000000
vt 0.013936 0.000000
vt 0.013936 1.000000
vt 0.986064 1.000000
vt 0.986064 1.000000
vt 0.013936 1.000000
vt 0.982064 1.000000
vt 0.017936 1.000000
vt 0.018359 1.000000
vt 0.981641 1.000000
vt 0.017936 0.000000
vt 0.982064 0.000000
vt 0.981641 0.000000
vt 0.018359 0.000000
vt 1.000000 0.017936
vt 1.000000 0.982064
vt 1.000000 0.981641
vt 1.000000 0.018359
vt 0.000000 0.982064
vt 0.000000 0.017936
vt 0.000000 0.018359
vt 0.000000 0.981641
vt 1.000000 0.986064
vt 1.000000 0.013936
vt 1.000000 0.013936
vt 0.000000 0.013936
vt 0.000000 0.986064
vt 0.000000 0.986064
vt 0.000000 0.013936
vt 1.000000 0.012537
vt 1.000000 0.987463
vt 1.000000 0.987463
vt 1.000000 0.012537
vt 0.000000 0.987463
vt 0.000000 0.012537
vt 0.000000 0.012537
vt 0.000000 0.987463
s 1
f 1/1/1 4/2/2 25/2/3 22/3/4
f 7/4/5 6/5/6 20/6/7 30/7/8
f 11/8/6 10/9/5 37/10/9 42/8/10
f 13/11/2 16/12/1 45/13/11 33/14/12
f 31/15/13 19/16/14 34/17/15 48/18/16
f 23/19/17 28/20/18 43/21/19 40/22/20
f 27/23/21 32/24/22 47/25/23 44/26/24
f 18/27/25 24/28/26 39/29/27 35/30/28
f 15/31/29 12/32/30 41/33/31 46/31/32
f 9/34/33 14/35/34 36/36/35 38/37/36
f 3/38/34 8/39/33 29/40/37 26/41/38
f 17/42/39 18/27/25 19/16/14 20/6/7
f 21/43/40 22/3/4 23/19/17 24/28/26
f 25/2/3 26/41/38 27/23/21 28/20/18
f 29/40/37 30/7/8 31/15/13 32/24/22
f 33/14/12 34/17/15 35/30/28 36/36/35
f 37/10/9 38/37/36 39/29/27 40/22/20
f 41/33/31 42/8/10 43/21/19 44/26/24
f 45/13/11 46/31/32 47/25/23 48/18/16
f 37/10/9 10/9/5 9/34/33 38/37/36
f 13/11/2 33/14/12 36/36/35 14/35/34
f 45/13/11 16/12/1 15/31/29 46/31/32
f 11/8/6 42/8/10 41/33/31 12/32/30
f 17/42/39 21/43/40 24/28/26 18/27/25
f 22/3/4 25/2/3 28/20/18 23/19/17
f 26/41/38 29/40/37 32/24/22 27/23/21
f 30/7/8 20/6/7 19/16/14 31/15/13
f 35/30/28 39/29/27 38/37/36 36/36/35
f 40/22/20 43/21/19 42/8/10 37/10/9
f 44/26/24 47/25/23 46/31/32 41/33/31
f 48/18/16 34/17/15 33/14/12 45/13/11
f 31/15/13 48/18/16 47/25/23 32/24/22
f 43/21/19 28/20/18 27/23/21 44/26/24
f 23/19/17 40/22/20 39/29/27 24/28/26
f 34/17/15 19/16/14 18/27/25 35/30/28
f 7/4/5 30/7/8 29/40/37 8/39/33
f 25/2/3 4/2/2 3/38/34 26/41/38
f 1/1/1 22/3/4 21/43/40 2/44/29
f 20/6/7 6/5/6 5/45/30 17/42/39
f 5/45/30 2/44/29 21/43/40 17/42/39
