# Blender 4.0.0
# www.blender.org
mtllib raw_model.mtl
o Cube
v 0.642452 0.012261 -0.505754
v 0.642452 -0.012261 -0.505754
v 0.642452 0.012261 0.505754
v 0.642452 -0.012261 0.505754
v -0.642452 0.012261 -0.505754
v -0.642452 -0.012261 -0.505754
v -0.642452 0.012261 0.505754
v -0.642452 -0.012261 0.505754
v -0.642452 -0.012261 0.000000
v -0.000000 -0.012261 -0.505754
v 0.642452 0.000000 -0.505754
v -0.642452 0.000000 0.505754
v 0.642452 0.000000 0.505754
v -0.642452 0.000000 -0.505754
v -0.000000 0.012261 0.505754
v 0.642452 0.012261 0.000000
v -0.000000 -0.012261 0.505754
v -0.642452 0.012261 0.000000
v -0.000000 0.012261 -0.505754
v 0.642452 -0.012261 0.000000
v -0.000000 0.000000 -0.505754
v 0.642452 0.000000 0.000000
v -0.000000 -0.012261 0.000000
v -0.642452 0.000000 0.000000
v -0.000000 0.000000 0.505754
v -0.000000 0.012261 0.000000
vn -0.0000 1.0000 -0.0000
vn -0.0000 -0.0000 1.0000
vn -1.0000 -0.0000 -0.0000
vn -0.0000 -1.0000 -0.0000
vn 1.0000 -0.0000 -0.0000
vn -0.0000 -0.0000 -1.0000
vt 1.000000 0.500000
vt 0.500000 1.000000
vt 0.500000 0.500000
vt 0.500000 0.999900
vt 0.023217 0.988341
vt 0.500000 0.988341
vt 0.000100 0.500000
vt 0.011659 0.023217
vt 0.011659 0.500000
vt 0.976782 0.500000
vt 0.500000 0.976783
vt 0.500000 0.500000
vt 0.999900 0.500000
vt 0.988341 0.976783
vt 0.988341 0.500000
vt 0.500000 0.000100
vt 0.976783 0.011659
vt 0.500000 0.011659
vt 0.976783 0.023217
vt 0.500000 0.023217
vt 0.023217 0.011659
vt 0.023217 0.023217
vt 0.023217 0.000100
vt 0.976782 0.976783
vt 0.988341 0.023217
vt 0.999900 0.023217
vt 0.023217 0.976783
vt 0.023217 0.500000
vt 0.011659 0.976783
vt 0.000100 0.976783
vt 0.976782 0.988341
vt 0.976783 0.999900
vt 0.000000 1.000000
vt 0.000000 0.500000
vt 0.500000 0.000000
vt 0.000000 0.000000
vt 1.000000 0.000000
vt 1.000000 1.000000
vt 0.023217 0.999900
vt 0.000100 0.023217
vt 0.999900 0.976783
vt 0.976783 0.000100
s 0
usemtl wood
f 15/4/2 12/5/2 25/6/2
f 18/7/3 14/8/3 24/9/3
f 20/10/4 17/11/4 23/12/4
f 16/13/5 13/14/5 22/15/5
f 19/16/6 11/17/6 21/18/6
f 21/18/6 2/19/6 10/20/6
f 14/21/6 10/20/6 6/22/6
f 5/23/6 21/18/6 14/21/6
f 22/15/5 4/24/5 20/10/5
f 11/25/5 20/10/5 2/19/5
f 1/26/5 22/15/5 11/25/5
f 23/12/4 8/27/4 9/28/4
f 10/20/4 9/28/4 6/22/4
f 2/19/4 23/12/4 10/20/4
f 24/9/3 6/22/3 9/28/3
f 12/29/3 9/28/3 8/27/3
f 7/30/3 24/9/3 12/29/3
f 25/6/2 8/27/2 17/11/2
f 13/31/2 17/11/2 4/24/2
f 3/32/2 25/6/2 13/31/2
f 15/4/2 7/39/2 12/5/2
f 18/7/3 5/40/3 14/8/3
f 20/10/4 4/24/4 17/11/4
f 16/13/5 3/41/5 13/14/5
f 19/16/6 1/42/6 11/17/6
f 21/18/6 11/17/6 2/19/6
f 14/21/6 21/18/6 10/20/6
f 5/23/6 19/16/6 21/18/6
f 22/15/5 13/14/5 4/24/5
f 11/25/5 22/15/5 20/10/5
f 1/26/5 16/13/5 22/15/5
f 23/12/4 17/11/4 8/27/4
f 10/20/4 23/12/4 9/28/4
f 2/19/4 20/10/4 23/12/4
f 24/9/3 14/8/3 6/22/3
f 12/29/3 24/9/3 9/28/3
f 7/30/3 18/7/3 24/9/3
f 25/6/2 12/5/2 8/27/2
f 13/31/2 25/6/2 17/11/2
f 3/32/2 15/4/2 25/6/2
usemtl painting_2
f 18/1/1 15/2/1 26/3/1
f 26/3/1 3/33/1 16/34/1
f 19/35/1 16/34/1 1/36/1
f 5/37/1 26/3/1 19/35/1
f 18/1/1 7/38/1 15/2/1
f 26/3/1 15/2/1 3/33/1
f 19/35/1 26/3/1 16/34/1
f 5/37/1 18/1/1 26/3/1
